<?xml version="1.0" encoding="UTF-8" standalone="no"?>
<svg
   version="1.1"
   width="500px"
   height="500px"
   style="shape-rendering:geometricPrecision; text-rendering:geometricPrecision; image-rendering:optimizeQuality; fill-rule:evenodd; clip-rule:evenodd"
   id="svg103"
   sodipodi:docname="com.mudeprolinux.whakarere.svg"
   inkscape:version="1.3 (0e150ed6c4, 2023-07-21)"
   xmlns:inkscape="http://www.inkscape.org/namespaces/inkscape"
   xmlns:sodipodi="http://sodipodi.sourceforge.net/DTD/sodipodi-0.dtd"
   xmlns="http://www.w3.org/2000/svg"
   xmlns:svg="http://www.w3.org/2000/svg">
  <defs
     id="defs103" />
  <sodipodi:namedview
     id="namedview103"
     pagecolor="#ffffff"
     bordercolor="#000000"
     borderopacity="0.25"
     inkscape:showpageshadow="2"
     inkscape:pageopacity="0.0"
     inkscape:pagecheckerboard="0"
     inkscape:deskcolor="#d1d1d1"
     inkscape:zoom="1.0550033"
     inkscape:cx="204.26476"
     inkscape:cy="277.72425"
     inkscape:window-width="1904"
     inkscape:window-height="936"
     inkscape:window-x="26"
     inkscape:window-y="23"
     inkscape:window-maximized="0"
     inkscape:current-layer="svg103" />
  <g
     id="g1"
     transform="matrix(1.1959456,0,0,1.1959456,-48.888451,-56.230301)">
    <path
       style="opacity:1"
       fill="#05060b"
       d="m 148.5,48.5 c 70.687,-0.4669 141.354,0.0331 212,1.5 44.419,9.7548 69.252,37.2548 74.5,82.5 0.667,65.667 0.667,131.333 0,197 -5.686,49.686 -33.353,77.353 -83,83 -56.096,-1.164 -112.263,-1.331 -168.5,-0.5 -26.266,15.938 -52.266,32.271 -78,49 -6.1128,4.748 -11.9461,4.582 -17.5,-0.5 -1.2504,-2.577 -1.5837,-5.243 -1,-8 5.8854,-16.771 12.052,-33.437 18.5,-50 -9.5402,-7.705 -18.3736,-16.371 -26.5,-26 -7.7986,-12.267 -12.7986,-25.601 -15,-40 -0.6667,-70.333 -0.6667,-140.667 0,-211 6.8968,-36.8925 28.0634,-61.3925 63.5,-73.5 7.083,-1.5573 14.083,-2.724 21,-3.5 z"
       id="path1" />
  </g>
  <g
     id="g2"
     transform="matrix(1.1959456,0,0,1.1959456,-48.888451,-56.230301)">
    <path
       style="opacity:1"
       fill="#f3ead6"
       d="m 416.5,155.5 c -4.419,1.979 -6.753,5.479 -7,10.5 0.179,5.538 2.512,9.705 7,12.5 0,11 0,22 0,33 -4.5,-0.336 -6.333,1.664 -5.5,6 3.774,1.725 5.274,4.725 4.5,9 -1.51,-1.228 -3.01,-1.228 -4.5,0 -0.168,32.503 -0.668,64.836 -1.5,97 0.32,-34.025 -0.014,-68.025 -1,-102 0.318,-1.147 0.984,-1.981 2,-2.5 -1.52,-2.334 -2.52,-4.834 -3,-7.5 0.298,-27.025 -0.035,-54.025 -1,-81 0.271,-5.413 -0.229,-10.746 -1.5,-16 C 394.338,93.5115 377.505,80.3449 354.5,75 318.695,73.8565 282.861,73.3565 247,73.5 211.468,73.3532 175.968,73.8532 140.5,75 125.311,79.5085 112.478,87.6751 102,99.5 c -6.1579,7.983 -9.8246,16.983 -11,27 -1.8605,2.388 -3.1939,5.054 -4,8 -0.3333,24.667 -0.6667,49.333 -1,74 -0.7096,1.473 -1.8762,2.14 -3.5,2 -0.1666,-27.335 0,-54.669 0.5,-82 7.6935,-33.6929 28.527,-53.8595 62.5,-60.5 67.333,-0.6667 134.667,-0.6667 202,0 35.343,4.0041 57.843,23.1707 67.5,57.5 1.331,9.95 1.831,19.95 1.5,30 z"
       id="path2" />
  </g>
  <g
     id="g3"
     transform="matrix(1.1959456,0,0,1.1959456,-48.888451,-56.230301)">
    <path
       style="opacity:1"
       fill="#f6f0df"
       d="m 220.5,85.5 c 4.44,3.2635 8.773,6.7635 13,10.5 6.5,7.833 13.667,15 21.5,21.5 0.667,0.667 0.667,1.333 0,2 -29.068,29.235 -58.234,58.235 -87.5,87 -1.788,-2.291 -3.788,-4.457 -6,-6.5 4.182,-4.015 8.182,-8.182 12,-12.5 -6.794,-6.964 -13.461,-14.131 -20,-21.5 -0.667,-0.667 -1.333,-0.667 -2,0 -7.054,7.054 -14.054,14.054 -21,21 2.849,3.016 5.849,5.85 9,8.5 2.817,-2.317 5.484,-4.817 8,-7.5 -0.951,-0.718 -1.117,-1.551 -0.5,-2.5 1.858,-2.912 4.358,-4.412 7.5,-4.5 1.546,2.257 3.212,4.424 5,6.5 -6.152,6.652 -12.485,13.152 -19,19.5 -1,0.667 -2,0.667 -3,0 -5.791,-6.491 -11.957,-12.658 -18.5,-18.5 -0.667,-1 -0.667,-2 0,-3 11.167,-10.5 22.333,-21 33.5,-31.5 22.228,-23.394 44.894,-46.227 68,-68.5 z"
       id="path3" />
  </g>
  <g
     id="g4"
     transform="matrix(1.1959456,0,0,1.1959456,-48.888451,-56.230301)">
    <path
       style="opacity:1"
       fill="#f4eedd"
       d="m 394.5,127.5 c -1.758,-0.377 -3.425,-1.044 -5,-2 -1.235,0.84 -2.235,1.84 -3,3 -11.384,-22.537 -29.718,-33.0365 -55,-31.5 -13.968,4.114 -18.801,12.947 -14.5,26.5 4.316,5.308 9.483,6.308 15.5,3 2.613,-2.871 2.613,-5.705 0,-8.5 -7.448,0.158 -8.781,-2.509 -4,-8 9.404,-1.468 14.404,2.532 15,12 -1.372,10.032 -7.205,15.198 -17.5,15.5 -11.07,-1.068 -17.736,-7.068 -20,-18 -0.958,-10.59 2.876,-19.09 11.5,-25.5 26.239,-10.6005 48.739,-5.1005 67.5,16.5 4.224,5.119 7.391,10.785 9.5,17 z"
       id="path4" />
  </g>
  <g
     id="g5"
     transform="matrix(1.1959456,0,0,1.1959456,-48.888451,-56.230301)">
    <path
       style="opacity:1"
       fill="#f6efdd"
       d="m 280.5,88.5 c 3.071,-0.5755 5.071,0.5912 6,3.5 -6.519,24.588 -0.186,45.254 19,62 7.463,4.265 15.463,6.932 24,8 2.148,2.075 2.482,4.408 1,7 -2.53,1.422 -5.197,1.755 -8,1 -27.008,-6.679 -42.508,-23.846 -46.5,-51.5 -0.667,-6.667 -0.667,-13.333 0,-20 0.703,-3.7358 2.203,-7.0691 4.5,-10 z"
       id="path5" />
  </g>
  <g
     id="g6"
     transform="matrix(1.1959456,0,0,1.1959456,-48.888451,-56.230301)">
    <path
       style="opacity:1"
       fill="#9b5532"
       d="M 406.5,130.5 C 398.609,105.343 381.942,88.8431 356.5,81 320.032,79.8526 283.532,79.3526 247,79.5 c -34.5,0.1667 -69,0.3333 -103.5,0.5 -17.054,4.0973 -30.554,13.264 -40.5,27.5 -5.4138,7.903 -9.0805,16.569 -11,26 -0.5,29.665 -0.6666,59.331 -0.5,89 -1.6667,0 -3.3333,0 -5,0 -0.4513,-2.807 -1.7847,-3.807 -4,-3 0,-3 0,-6 0,-9 1.6238,0.14 2.7904,-0.527 3.5,-2 0.3333,-24.667 0.6667,-49.333 1,-74 0.8061,-2.946 2.1395,-5.612 4,-8 1.1754,-10.017 4.8421,-19.017 11,-27 10.478,-11.8249 23.311,-19.9915 38.5,-24.5 35.468,-1.1468 70.968,-1.6468 106.5,-1.5 35.861,-0.1435 71.695,0.3565 107.5,1.5 23.005,5.3449 39.838,18.5115 50.5,39.5 1.271,5.254 1.771,10.587 1.5,16 z"
       id="path6" />
  </g>
  <g
     id="g7"
     transform="matrix(1.1959456,0,0,1.1959456,-48.888451,-56.230301)">
    <path
       style="opacity:1"
       fill="#a75c33"
       d="m 264.5,89.5 c 0.325,7.8516 -0.008,15.518 -1,23 -7.135,-7.968 -14.802,-15.4678 -23,-22.5 7.993,-0.4997 15.993,-0.6664 24,-0.5 z"
       id="path7" />
  </g>
  <g
     id="g8"
     transform="matrix(1.1959456,0,0,1.1959456,-48.888451,-56.230301)">
    <path
       style="opacity:1"
       fill="#9f5c36"
       d="m 150.5,89.5 c 3.667,0 7.333,0 11,0 -3.744,9.3014 -7.411,9.3014 -11,0 z"
       id="path8" />
  </g>
  <g
     id="g9"
     transform="matrix(1.1959456,0,0,1.1959456,-48.888451,-56.230301)">
    <path
       style="opacity:1"
       fill="#a7a09d"
       d="m 201.5,90.5 c -5,0 -10,0 -15,0 -0.543,-0.06 -0.876,-0.3933 -1,-1 5.667,-1.3333 11.333,-1.3333 17,0 -0.124,0.6067 -0.457,0.94 -1,1 z"
       id="path9" />
  </g>
  <g
     id="g10"
     transform="matrix(1.1959456,0,0,1.1959456,-48.888451,-56.230301)">
    <path
       style="opacity:1"
       fill="#a2613e"
       d="m 186.5,90.5 c 5,0 10,0 15,0 -2.312,2.3123 -4.646,4.6457 -7,7 -2.739,-2.3508 -5.405,-4.6841 -8,-7 z"
       id="path10" />
  </g>
  <g
     id="g11"
     transform="matrix(1.1959456,0,0,1.1959456,-48.888451,-56.230301)">
    <path
       style="opacity:1"
       fill="#f5eedd"
       d="m 130.5,94.5 c 7.156,-1.3336 12.656,0.9997 16.5,7 1.314,3.681 0.147,6.014 -3.5,7 -2.301,-1.357 -4.301,-3.19 -6,-5.5 -6.053,-0.944 -8.22,1.556 -6.5,7.5 1.242,1.372 2.742,2.372 4.5,3 0.966,1.896 1.299,3.896 1,6 -10.129,0.039 -14.962,-4.961 -14.5,-15 1.978,-4.138 4.811,-7.4714 8.5,-10 z"
       id="path11" />
  </g>
  <g
     id="g12"
     transform="matrix(1.1959456,0,0,1.1959456,-48.888451,-56.230301)">
    <path
       style="opacity:1"
       fill="#f5eddc"
       d="m 184.5,103.5 c -2.448,0.973 -5.115,1.306 -8,1 -4.76,-0.299 -6.094,1.701 -4,6 -0.393,1.784 -1.059,3.45 -2,5 -3.179,-2.346 -5.846,-5.179 -8,-8.5 3.758,-4.763 7.925,-9.2627 12.5,-13.5 3.371,3.2025 6.538,6.536 9.5,10 z"
       id="path12" />
  </g>
  <g
     id="g13"
     transform="matrix(1.1959456,0,0,1.1959456,-48.888451,-56.230301)">
    <path
       style="opacity:1"
       fill="#3c1d11"
       d="m 264.5,89.5 c 1.32,7.8428 1.32,15.843 0,24 -0.607,-0.124 -0.94,-0.457 -1,-1 0.992,-7.482 1.325,-15.1484 1,-23 z"
       id="path13" />
  </g>
  <g
     id="g14"
     transform="matrix(1.1959456,0,0,1.1959456,-48.888451,-56.230301)">
    <path
       style="opacity:1"
       fill="#08070c"
       d="m 219.5,97.5 c 1.052,-0.1495 2.052,0.0172 3,0.5 6.848,6.681 13.515,13.514 20,20.5 -2.271,3.774 -5.104,7.107 -8.5,10 -2.667,-2.667 -5.333,-5.333 -8,-8 0.333,-1.667 0.667,-3.333 1,-5 -1.74,-2.454 -3.907,-3.954 -6.5,-4.5 -2.85,2.682 -5.516,5.516 -8,8.5 4.667,5 9.333,10 14,15 -2.667,3.333 -5.667,6.333 -9,9 -3.151,-2.65 -6.151,-5.484 -9,-8.5 1.074,-0.739 1.741,-1.739 2,-3 -0.939,-1.944 -2.273,-3.611 -4,-5 -1.845,0.783 -3.845,1.116 -6,1 -1.905,-1.815 -3.572,-3.815 -5,-6 7.071,-6.949 14.238,-13.782 21.5,-20.5 0.662,-1.484 1.496,-2.8172 2.5,-4 z"
       id="path14" />
  </g>
  <g
     id="g15"
     transform="matrix(1.1959456,0,0,1.1959456,-48.888451,-56.230301)">
    <path
       style="opacity:1"
       fill="#0d0506"
       d="m 176.5,104.5 c 2.094,4.299 0.76,6.299 -4,6 -2.094,-4.299 -0.76,-6.299 4,-6 z"
       id="path15" />
  </g>
  <g
     id="g16"
     transform="matrix(1.1959456,0,0,1.1959456,-48.888451,-56.230301)">
    <path
       style="opacity:1"
       fill="#9e5833"
       d="m 184.5,103.5 c 1.073,0.751 1.24,1.751 0.5,3 -4,4 -8,8 -12,12 -1.045,-0.873 -1.878,-1.873 -2.5,-3 0.941,-1.55 1.607,-3.216 2,-5 4.76,0.299 6.094,-1.701 4,-6 2.885,0.306 5.552,-0.027 8,-1 z"
       id="path16" />
  </g>
  <g
     id="g17"
     transform="matrix(1.1959456,0,0,1.1959456,-48.888451,-56.230301)">
    <path
       style="opacity:1"
       fill="#f4f0db"
       d="m 119.5,132.5 c -2.694,-5.719 -7.027,-9.052 -13,-10 1.309,-3.278 3.142,-6.278 5.5,-9 1.145,2.426 2.478,4.759 4,7 3.36,1.86 5.86,4.527 7.5,8 -1.021,1.688 -2.355,3.021 -4,4 z"
       id="path17" />
  </g>
  <g
     id="g18"
     transform="matrix(1.1959456,0,0,1.1959456,-48.888451,-56.230301)">
    <path
       style="opacity:1"
       fill="#f5ecdb"
       d="m 163.5,123.5 c -2.107,0.968 -4.441,1.302 -7,1 -1.88,-0.271 -3.213,0.396 -4,2 -0.617,0.111 -1.117,0.444 -1.5,1 -0.183,2.865 -0.683,5.531 -1.5,8 -2.797,-2.295 -5.464,-4.795 -8,-7.5 3.848,-5.526 8.515,-9.86 14,-13 2.871,2.703 5.538,5.536 8,8.5 z"
       id="path18" />
  </g>
  <g
     id="g19"
     transform="matrix(1.1959456,0,0,1.1959456,-48.888451,-56.230301)">
    <path
       style="opacity:1"
       fill="#4db3b7"
       d="m 365.5,121.5 c 5.335,-0.495 7.835,1.838 7.5,7 -6.806,5.053 -9.806,3.387 -9,-5 0.717,-0.544 1.217,-1.211 1.5,-2 z"
       id="path19" />
  </g>
  <g
     id="g20"
     transform="matrix(1.1959456,0,0,1.1959456,-48.888451,-56.230301)">
    <path
       style="opacity:1"
       fill="#130a08"
       d="m 156.5,124.5 c 1.37,3.551 0.036,5.218 -4,5 0,-1 0,-2 0,-3 0.787,-1.604 2.12,-2.271 4,-2 z"
       id="path20" />
  </g>
  <g
     id="g21"
     transform="matrix(1.1959456,0,0,1.1959456,-48.888451,-56.230301)">
    <path
       style="opacity:1"
       fill="#9a5934"
       d="m 163.5,123.5 c 1.585,0.502 2.085,1.502 1.5,3 -3.833,3.833 -7.667,7.667 -11.5,11.5 -1.912,0.279 -3.246,-0.554 -4,-2.5 0.817,-2.469 1.317,-5.135 1.5,-8 0.383,-0.556 0.883,-0.889 1.5,-1 0,1 0,2 0,3 4.036,0.218 5.37,-1.449 4,-5 2.559,0.302 4.893,-0.032 7,-1 z"
       id="path21" />
  </g>
  <g
     id="g22"
     transform="matrix(1.1959456,0,0,1.1959456,-48.888451,-56.230301)">
    <path
       style="opacity:1"
       fill="#a25b38"
       d="m 106.5,122.5 c 5.973,0.948 10.306,4.281 13,10 -4.925,5.592 -10.258,10.925 -16,16 -0.952,-1.545 -1.285,-3.212 -1,-5 3.717,-4.046 7.384,-8.046 11,-12 0,-1 0,-2 0,-3 -3,0 -6,0 -9,0 -0.241,-2.398 0.426,-4.398 2,-6 z"
       id="path22" />
  </g>
  <g
     id="g23"
     transform="matrix(1.1959456,0,0,1.1959456,-48.888451,-56.230301)">
    <path
       style="opacity:1"
       fill="#4bb7c0"
       d="m 394.5,127.5 c 7.764,15.462 7.931,31.129 0.5,47 -2.423,2.932 -5.257,5.265 -8.5,7 -0.667,-0.333 -1.333,-0.667 -2,-1 5.37,-8.698 7.704,-18.198 7,-28.5 0.46,-8.32 -1.206,-16.154 -5,-23.5 0.765,-1.16 1.765,-2.16 3,-3 1.575,0.956 3.242,1.623 5,2 z"
       id="path23" />
  </g>
  <g
     id="g24"
     transform="matrix(1.1959456,0,0,1.1959456,-48.888451,-56.230301)">
    <path
       style="opacity:1"
       fill="#5ab2bc"
       d="m 259.5,126.5 c 6.034,0.854 10.2,4.188 12.5,10 0.497,2.31 0.663,4.643 0.5,7 -1.052,0.149 -2.052,-0.017 -3,-0.5 -3.833,-3.833 -7.667,-7.667 -11.5,-11.5 -0.613,-1.995 -0.113,-3.662 1.5,-5 z"
       id="path24" />
  </g>
  <g
     id="g25"
     transform="matrix(1.1959456,0,0,1.1959456,-48.888451,-56.230301)">
    <path
       style="opacity:1"
       fill="#0a0a0e"
       d="m 187.5,129.5 c 1.422,0.209 2.755,0.709 4,1.5 6.667,6.667 13.333,13.333 20,20 -4.148,3.314 -8.148,6.814 -12,10.5 -3.201,-2.366 -5.867,-5.2 -8,-8.5 0.77,-1.775 1.937,-3.275 3.5,-4.5 -1.669,-8.155 -5.003,-8.822 -10,-2 -2.35,-2.183 -4.517,-4.516 -6.5,-7 3.022,-3.353 6.022,-6.687 9,-10 z"
       id="path25" />
  </g>
  <g
     id="g26"
     transform="matrix(1.1959456,0,0,1.1959456,-48.888451,-56.230301)">
    <path
       style="opacity:1"
       fill="#eadbc6"
       d="m 113.5,131.5 c -3.616,3.954 -7.283,7.954 -11,12 1.52,-5.858 5.186,-9.858 11,-12 z"
       id="path26" />
  </g>
  <g
     id="g27"
     transform="matrix(1.1959456,0,0,1.1959456,-48.888451,-56.230301)">
    <path
       style="opacity:1"
       fill="#f6f0de"
       d="m 355.5,139.5 c 16.288,-2.025 25.622,4.975 28,21 -2.232,16.3 -11.565,23.133 -28,20.5 -10.13,-3.238 -14.797,-10.238 -14,-21 0.113,-9.946 4.779,-16.779 14,-20.5 z"
       id="path27" />
  </g>
  <g
     id="g28"
     transform="matrix(1.1959456,0,0,1.1959456,-48.888451,-56.230301)">
    <path
       style="opacity:1"
       fill="#4da4ba"
       d="m 250.5,138.5 c 1.495,-0.085 2.495,0.581 3,2 -3.071,1.285 -5.904,2.951 -8.5,5 0.804,-2.99 2.637,-5.323 5.5,-7 z"
       id="path28" />
  </g>
  <g
     id="g29"
     transform="matrix(1.1959456,0,0,1.1959456,-48.888451,-56.230301)">
    <path
       style="opacity:1"
       fill="#f4efde"
       d="m 132.5,134.5 c 1.871,0.359 3.371,1.359 4.5,3 1.961,2.963 4.294,5.629 7,8 -0.372,2.42 -1.705,4.42 -4,6 -2.064,-2.774 -4.564,-4.607 -7.5,-5.5 -2.517,2.349 -4.85,4.849 -7,7.5 1.315,1.816 2.815,3.483 4.5,5 -0.747,2.945 -2.58,5.278 -5.5,7 -2.15,-1.649 -4.15,-3.482 -6,-5.5 -0.667,-0.667 -1.333,-0.667 -2,0 -1.81,2.644 -3.81,5.144 -6,7.5 1.858,2.024 3.525,4.191 5,6.5 -1.277,4.009 -3.61,5.009 -7,3 -2.833,-2.833 -5.667,-5.667 -8.5,-8.5 -0.6667,-0.667 -0.6667,-1.333 0,-2 10.675,-10.842 21.508,-21.508 32.5,-32 z"
       id="path29" />
  </g>
  <g
     id="g30"
     transform="matrix(1.1959456,0,0,1.1959456,-48.888451,-56.230301)">
    <path
       style="opacity:1"
       fill="#0c0b0f"
       d="m 171.5,171.5 c 1.858,-1.095 3.525,-2.429 5,-4 -0.688,-1.355 -1.688,-2.355 -3,-3 -0.645,-1.312 -1.645,-2.312 -3,-3 -1.667,1.333 -3.333,2.667 -5,4 -2.719,-1.719 -4.719,-4.053 -6,-7 3.667,-4.333 7.667,-8.333 12,-12 7.613,6.946 14.946,14.279 22,22 -3.707,4.708 -8.04,8.708 -13,12 -3.354,-2.688 -6.354,-5.688 -9,-9 z"
       id="path30" />
  </g>
  <g
     id="g31"
     transform="matrix(1.1959456,0,0,1.1959456,-48.888451,-56.230301)">
    <path
       style="opacity:1"
       fill="#4bb8bf"
       d="m 325.5,145.5 c 1.644,-0.214 3.144,0.12 4.5,1 1.848,6.153 -0.152,8.153 -6,6 -0.833,-2.671 -0.333,-5.004 1.5,-7 z"
       id="path31" />
  </g>
  <g
     id="g32"
     transform="matrix(1.1959456,0,0,1.1959456,-48.888451,-56.230301)">
    <path
       style="opacity:1"
       fill="#08060c"
       d="m 357.5,148.5 c 11.427,-1.238 16.927,3.762 16.5,15 -3.737,9.617 -10.237,12.117 -19.5,7.5 -7.396,-8.671 -6.396,-16.171 3,-22.5 z"
       id="path32" />
  </g>
  <g
     id="g33"
     transform="matrix(1.1959456,0,0,1.1959456,-48.888451,-56.230301)">
    <path
       style="opacity:1"
       fill="#f6f0de"
       d="m 259.5,151.5 c 5.984,-0.061 11.317,1.772 16,5.5 8.191,9.19 16.691,18.023 25.5,26.5 4.333,5.667 8.667,11.333 13,17 5.647,15.021 4.314,29.354 -4,43 -14.833,14.833 -29.667,29.667 -44.5,44.5 -8.667,6 -17.333,6 -26,0 -11.296,-11.529 -22.796,-22.696 -34.5,-33.5 -8.13,-7.76 -12.63,-17.26 -13.5,-28.5 0.335,-6.505 2.502,-12.338 6.5,-17.5 15.833,-15.833 31.667,-31.667 47.5,-47.5 4.247,-3.944 8.914,-7.111 14,-9.5 z"
       id="path33" />
  </g>
  <g
     id="g34"
     transform="matrix(1.1959456,0,0,1.1959456,-48.888451,-56.230301)">
    <path
       style="opacity:1"
       fill="#a15c36"
       d="m 416.5,155.5 c 0,7.667 0,15.333 0,23 -4.488,-2.795 -6.821,-6.962 -7,-12.5 0.247,-5.021 2.581,-8.521 7,-10.5 z"
       id="path34" />
  </g>
  <g
     id="g35"
     transform="matrix(1.1959456,0,0,1.1959456,-48.888451,-56.230301)">
    <path
       style="opacity:1"
       fill="#edebd0"
       d="m 360.5,157.5 c 4.192,-0.097 5.525,1.736 4,5.5 -4.772,0.81 -6.105,-1.023 -4,-5.5 z"
       id="path35" />
  </g>
  <g
     id="g36"
     transform="matrix(1.1959456,0,0,1.1959456,-48.888451,-56.230301)">
    <path
       style="opacity:1"
       fill="#141315"
       d="m 259.5,160.5 c 6.946,0.758 12.612,3.925 17,9.5 -5.263,-0.595 -10.596,-1.095 -16,-1.5 -2.874,0.074 -5.708,0.407 -8.5,1 -1.257,-0.35 -1.591,-1.017 -1,-2 2.996,-2.233 5.829,-4.566 8.5,-7 z"
       id="path36" />
  </g>
  <g
     id="g37"
     transform="matrix(1.1959456,0,0,1.1959456,-48.888451,-56.230301)">
    <path
       style="opacity:1"
       fill="#955634"
       d="m 173.5,164.5 c 1.312,0.645 2.312,1.645 3,3 -1.475,1.571 -3.142,2.905 -5,4 -2.695,-2.95 -2.029,-5.283 2,-7 z"
       id="path37" />
  </g>
  <g
     id="g38"
     transform="matrix(1.1959456,0,0,1.1959456,-48.888451,-56.230301)">
    <path
       style="opacity:1"
       fill="#040409"
       d="m 251.5,177.5 c 27.14,-2.995 45.973,8.005 56.5,33 2.221,11.442 -0.112,21.775 -7,31 -3,3 -6,6 -9,9 8.449,-19.981 3.616,-35.814 -14.5,-47.5 -16.79,-6.3 -28.956,-1.467 -36.5,14.5 -1.76,15.573 5.073,22.407 20.5,20.5 6.061,-2.963 8.228,-7.797 6.5,-14.5 -3.772,-5.44 -6.938,-5.273 -9.5,0.5 2.786,5.147 1.119,6.813 -5,5 -4.113,-3.509 -4.946,-7.676 -2.5,-12.5 9.253,-8.919 18.92,-9.253 29,-1 7.522,9.951 8.522,20.618 3,32 -3.887,6.887 -9.721,11.053 -17.5,12.5 -24.857,2.649 -40.357,-8.185 -46.5,-32.5 -1.99,-25.022 8.843,-41.689 32.5,-50 z"
       id="path38" />
  </g>
  <g
     id="g39"
     transform="matrix(1.1959456,0,0,1.1959456,-48.888451,-56.230301)">
    <path
       style="opacity:1"
       fill="#4ab7c0"
       d="m 312.5,178.5 c 0.235,-0.597 0.735,-0.93 1.5,-1 2.5,0.833 5,1.667 7.5,2.5 5.092,0.237 10.092,0.404 15,0.5 -1.501,5.332 -4.667,9.332 -9.5,12 -5.351,-4.185 -10.184,-8.852 -14.5,-14 z"
       id="path39" />
  </g>
  <g
     id="g40"
     transform="matrix(1.1959456,0,0,1.1959456,-48.888451,-56.230301)">
    <path
       style="opacity:1"
       fill="#f7f1de"
       d="m 140.5,224.5 c -3.667,0 -7.333,0 -11,0 -8.965,-8.464 -17.798,-17.131 -26.5,-26 -0.825,-3.711 -0.659,-7.378 0.5,-11 12.688,12.021 25.021,24.354 37,37 z"
       id="path40" />
  </g>
  <g
     id="g41"
     transform="matrix(1.1959456,0,0,1.1959456,-48.888451,-56.230301)">
    <path
       style="opacity:1"
       fill="#f3ecdc"
       d="m 395.5,188.5 c 1.287,1.371 1.953,3.205 2,5.5 -0.167,1.833 -0.333,3.667 -0.5,5.5 -8.681,8.514 -17.181,17.181 -25.5,26 7.986,8.486 16.152,16.819 24.5,25 1.534,4.211 1.867,8.544 1,13 -13.138,-12.137 -25.971,-24.637 -38.5,-37.5 12.481,-12.314 24.814,-24.814 37,-37.5 z"
       id="path41" />
  </g>
  <g
     id="g42"
     transform="matrix(1.1959456,0,0,1.1959456,-48.888451,-56.230301)">
    <path
       style="opacity:1"
       fill="#4ab9bf"
       d="m 376.5,188.5 c 3.338,0.693 3.838,2.36 1.5,5 -3.414,5.544 -8.414,8.544 -15,9 -4.066,-0.801 -8.066,-1.801 -12,-3 -4.069,-0.05 -6.902,1.783 -8.5,5.5 -4.996,0.664 -6.83,-1.502 -5.5,-6.5 2.205,-2.54 4.705,-4.707 7.5,-6.5 6.633,-0.823 13.133,-0.323 19.5,1.5 4.927,-0.025 9.093,-1.692 12.5,-5 z"
       id="path42" />
  </g>
  <g
     id="g43"
     transform="matrix(1.1959456,0,0,1.1959456,-48.888451,-56.230301)">
    <path
       style="opacity:1"
       fill="#edead7"
       d="m 148.5,209.5 c 4.256,-1.046 6.922,0.454 8,4.5 -2.409,5.227 -5.575,5.727 -9.5,1.5 -0.409,-2.195 0.091,-4.195 1.5,-6 z"
       id="path43" />
  </g>
  <g
     id="g44"
     transform="matrix(1.1959456,0,0,1.1959456,-48.888451,-56.230301)">
    <path
       style="opacity:1"
       fill="#4eb6b5"
       d="m 351.5,208.5 c 6.258,0.977 7.591,4.144 4,9.5 -5.5,1.167 -7.667,-1 -6.5,-6.5 1.045,-0.873 1.878,-1.873 2.5,-3 z"
       id="path44" />
  </g>
  <g
     id="g45"
     transform="matrix(1.1959456,0,0,1.1959456,-48.888451,-56.230301)">
    <path
       style="opacity:1"
       fill="#85492e"
       d="m 416.5,211.5 c 0.332,38.837 -10e-4,77.504 -1,116 0,-33.667 0,-67.333 0,-101 0.774,-4.275 -0.726,-7.275 -4.5,-9 -0.833,-4.336 1,-6.336 5.5,-6 z"
       id="path45" />
  </g>
  <g
     id="g46"
     transform="matrix(1.1959456,0,0,1.1959456,-48.888451,-56.230301)">
    <path
       style="opacity:1"
       fill="#56bac0"
       d="m 104.5,215.5 c 3.844,3.011 7.178,6.511 10,10.5 -2.822,3.989 -6.156,7.489 -10,10.5 0,-7 0,-14 0,-21 z"
       id="path46" />
  </g>
  <g
     id="g47"
     transform="matrix(1.1959456,0,0,1.1959456,-48.888451,-56.230301)">
    <path
       style="opacity:1"
       fill="#4eb2c3"
       d="m 339.5,219.5 c -0.739,4.246 0.927,6.913 5,8 -2.646,4.819 -6.313,8.319 -11,10.5 3.224,-7.053 3.557,-14.22 1,-21.5 0.333,-0.333 0.667,-0.667 1,-1 1.409,1.349 2.743,2.682 4,4 z"
       id="path47" />
  </g>
  <g
     id="g48"
     transform="matrix(1.1959456,0,0,1.1959456,-48.888451,-56.230301)">
    <path
       style="opacity:1"
       fill="#ebe5d5"
       d="m 164.5,222.5 c -2,1.667 -4,3.333 -6,5 -0.789,-0.283 -1.456,-0.783 -2,-1.5 2.183,-2.35 4.516,-4.517 7,-6.5 0.886,0.825 1.219,1.825 1,3 z"
       id="path48" />
  </g>
  <g
     id="g49"
     transform="matrix(1.1959456,0,0,1.1959456,-48.888451,-56.230301)">
    <path
       style="opacity:1"
       fill="#e6f2e9"
       d="m 339.5,219.5 c 3.33,2.049 4.996,4.715 5,8 -4.073,-1.087 -5.739,-3.754 -5,-8 z"
       id="path49" />
  </g>
  <g
     id="g50"
     transform="matrix(1.1959456,0,0,1.1959456,-48.888451,-56.230301)">
    <path
       style="opacity:1"
       fill="#e8ebdb"
       d="m 86.5,222.5 c -0.9614,1.765 -1.2947,3.765 -1,6 -0.891,0.61 -1.891,0.943 -3,1 0,-3.333 0,-6.667 0,-10 2.2153,-0.807 3.5487,0.193 4,3 z"
       id="path50" />
  </g>
  <g
     id="g51"
     transform="matrix(1.1959456,0,0,1.1959456,-48.888451,-56.230301)">
    <path
       style="opacity:1"
       fill="#4eb9c5"
       d="m 395.5,214.5 c 1.156,7.489 1.322,15.155 0.5,23 -3.882,-3.546 -7.382,-7.379 -10.5,-11.5 3.156,-3.989 6.489,-7.823 10,-11.5 z"
       id="path51" />
  </g>
  <g
     id="g52"
     transform="matrix(1.1959456,0,0,1.1959456,-48.888451,-56.230301)">
    <path
       style="opacity:1"
       fill="#e2eeee"
       d="m 104.5,215.5 c 0,7 0,14 0,21 -0.06,0.543 -0.393,0.876 -1,1 -1.333,-7.667 -1.333,-15.333 0,-23 0.607,0.124 0.94,0.457 1,1 z"
       id="path52" />
  </g>
  <g
     id="g53"
     transform="matrix(1.1959456,0,0,1.1959456,-48.888451,-56.230301)">
    <path
       style="opacity:1"
       fill="#9a5938"
       d="m 164.5,222.5 c 0.323,3.726 -0.011,7.393 -1,11 -2.141,-1.622 -3.808,-3.622 -5,-6 2,-1.667 4,-3.333 6,-5 z"
       id="path53" />
  </g>
  <g
     id="g54"
     transform="matrix(1.1959456,0,0,1.1959456,-48.888451,-56.230301)">
    <path
       style="opacity:1"
       fill="#a15a32"
       d="m 129.5,224.5 c 3.667,0 7.333,0 11,0 0.789,0.283 1.456,0.783 2,1.5 -12.874,13.041 -25.874,25.875 -39,38.5 -1.16,-3.959 -1.327,-7.959 -0.5,-12 8.879,-9.179 18.045,-18.012 27.5,-26.5 -0.556,-0.383 -0.889,-0.883 -1,-1.5 z"
       id="path54" />
  </g>
  <g
     id="g55"
     transform="matrix(1.1959456,0,0,1.1959456,-48.888451,-56.230301)">
    <path
       style="opacity:1"
       fill="#eeefdd"
       d="m 178.5,209.5 c -1.239,9.048 -1.239,18.381 0,28 0.16,1.855 -0.507,3.188 -2,4 -1.427,-1.648 -2.26,-3.648 -2.5,-6 -1.786,-9.37 -0.286,-18.037 4.5,-26 z"
       id="path55" />
  </g>
  <g
     id="g56"
     transform="matrix(1.1959456,0,0,1.1959456,-48.888451,-56.230301)">
    <path
       style="opacity:1"
       fill="#e5eadf"
       d="m 166.5,253.5 c -5.352,-5.351 -11.018,-10.351 -17,-15 -5.313,3.981 -10.313,8.314 -15,13 -1.443,1.203 -3.109,1.703 -5,1.5 6.248,-6.92 13.081,-13.086 20.5,-18.5 7.457,6.456 14.624,13.289 21.5,20.5 -1.782,0.122 -3.448,-0.378 -5,-1.5 z"
       id="path56" />
  </g>
  <g
     id="g57"
     transform="matrix(1.1959456,0,0,1.1959456,-48.888451,-56.230301)">
    <path
       style="opacity:1"
       fill="#4db5c2"
       d="m 166.5,253.5 c -10.543,-2.895 -21.21,-3.561 -32,-2 4.687,-4.686 9.687,-9.019 15,-13 5.982,4.649 11.648,9.649 17,15 z"
       id="path57" />
  </g>
  <g
     id="g58"
     transform="matrix(1.1959456,0,0,1.1959456,-48.888451,-56.230301)">
    <path
       style="opacity:1"
       fill="#a15d37"
       d="m 357.5,238.5 c 1.025,0.397 1.192,1.063 0.5,2 -7.089,7.594 -14.589,14.594 -22.5,21 -0.973,-1.568 -1.14,-3.235 -0.5,-5 5.264,-4.984 10.43,-10.151 15.5,-15.5 2.427,-0.902 4.76,-1.736 7,-2.5 z"
       id="path58" />
  </g>
  <g
     id="g59"
     transform="matrix(1.1959456,0,0,1.1959456,-48.888451,-56.230301)">
    <path
       style="opacity:1"
       fill="#f2eddb"
       d="m 355.5,253.5 c 9.391,1.31 11.391,5.81 6,13.5 -7.659,1.949 -11.159,-0.885 -10.5,-8.5 1.025,-2.187 2.525,-3.854 4.5,-5 z"
       id="path59" />
  </g>
  <g
     id="g60"
     transform="matrix(1.1959456,0,0,1.1959456,-48.888451,-56.230301)">
    <path
       style="opacity:1"
       fill="#5bbcc5"
       d="m 85.5,228.5 c 0.331,25.172 -0.0023,50.172 -1,75 -0.7216,-0.418 -1.2216,-1.084 -1.5,-2 -0.5,-23.998 -0.6666,-47.998 -0.5,-72 1.109,-0.057 2.109,-0.39 3,-1 z"
       id="path60" />
  </g>
  <g
     id="g61"
     transform="matrix(1.1959456,0,0,1.1959456,-48.888451,-56.230301)">
    <path
       style="opacity:1"
       fill="#0e0d10"
       d="m 210.5,208.5 c -3.3,20.251 2.7,37.417 18,51.5 5.442,4.054 11.442,7.054 18,9 10.363,1.268 20.363,0.268 30,-3 -5.301,4.3 -10.301,8.966 -15,14 -6,4.667 -12,4.667 -18,0 -13.251,-12.916 -26.084,-26.082 -38.5,-39.5 -7.503,-12.339 -5.67,-23.006 5.5,-32 z"
       id="path61" />
  </g>
  <g
     id="g62"
     transform="matrix(1.1959456,0,0,1.1959456,-48.888451,-56.230301)">
    <path
       style="opacity:1"
       fill="#4db6c0"
       d="m 135.5,260.5 c 12.797,-1.179 25.131,0.655 37,5.5 2.055,0.687 3.721,1.854 5,3.5 -4.752,1.64 -9.585,2.973 -14.5,4 -22.092,-6.98 -42.092,-3.313 -60,11 -1.652,-5.346 -0.152,-9.513 4.5,-12.5 8.616,-5.815 17.949,-9.649 28,-11.5 z"
       id="path62" />
  </g>
  <g
     id="g63"
     transform="matrix(1.1959456,0,0,1.1959456,-48.888451,-56.230301)">
    <path
       style="opacity:1"
       fill="#f5ecd9"
       d="m 396.5,276.5 c -3.018,0.165 -6.018,-0.002 -9,-0.5 -2.199,-1.697 -4.532,-3.197 -7,-4.5 -1.345,0.847 -2.345,2.013 -3,3.5 -3.293,0.826 -6.626,1.326 -10,1.5 -1.025,-0.397 -1.192,-1.063 -0.5,-2 4.378,-4.714 9.044,-9.047 14,-13 5.658,4.491 10.824,9.491 15.5,15 z"
       id="path63" />
  </g>
  <g
     id="g64"
     transform="matrix(1.1959456,0,0,1.1959456,-48.888451,-56.230301)">
    <path
       style="opacity:1"
       fill="#2babb9"
       d="m 86.5,222.5 c 1.6667,0 3.3333,0 5,0 0.1666,26.669 0,53.335 -0.5,80 -2.0164,2.108 -4.1831,2.442 -6.5,1 0.9977,-24.828 1.331,-49.828 1,-75 -0.2947,-2.235 0.0386,-4.235 1,-6 z"
       id="path64" />
  </g>
  <g
     id="g65"
     transform="matrix(1.1959456,0,0,1.1959456,-48.888451,-56.230301)">
    <path
       style="opacity:1"
       fill="#f7f1e0"
       d="m 357.5,238.5 c -2.24,0.764 -4.573,1.598 -7,2.5 -5.07,5.349 -10.236,10.516 -15.5,15.5 -0.64,1.765 -0.473,3.432 0.5,5 -16.132,16.632 -32.465,33.132 -49,49.5 -4,0.667 -8,0.667 -12,0 26.167,-25.5 52.333,-51 78.5,-76.5 1.371,1.541 2.871,2.875 4.5,4 z"
       id="path65" />
  </g>
  <g
     id="g66"
     transform="matrix(1.1959456,0,0,1.1959456,-48.888451,-56.230301)">
    <path
       style="opacity:1"
       fill="#fdfbf2"
       d="m 407.5,211.5 c 0.48,2.666 1.48,5.166 3,7.5 -1.016,0.519 -1.682,1.353 -2,2.5 0.986,33.975 1.32,67.975 1,102 0,2 0,4 0,6 -0.958,0.453 -1.792,1.119 -2.5,2 -0.464,-0.594 -0.631,-1.261 -0.5,-2 0.964,-39.316 1.297,-78.65 1,-118 z"
       id="path66" />
  </g>
  <g
     id="g67"
     transform="matrix(1.1959456,0,0,1.1959456,-48.888451,-56.230301)">
    <path
       style="opacity:1"
       fill="#f4eddd"
       d="m 336.5,270.5 c 7.828,-1.007 10.994,2.326 9.5,10 -4.754,5.451 -9.087,5.117 -13,-1 -0.519,-3.632 0.647,-6.632 3.5,-9 z"
       id="path67" />
  </g>
  <g
     id="g68"
     transform="matrix(1.1959456,0,0,1.1959456,-48.888451,-56.230301)">
    <path
       style="opacity:1"
       fill="#955736"
       d="m 396.5,276.5 c 0.961,1.765 1.295,3.765 1,6 -6.843,-0.505 -12.343,-3.505 -16.5,-9 -2.382,2.719 -5.049,5.053 -8,7 -2.505,-0.494 -4.339,-1.828 -5.5,-4 3.374,-0.174 6.707,-0.674 10,-1.5 0.655,-1.487 1.655,-2.653 3,-3.5 2.468,1.303 4.801,2.803 7,4.5 2.982,0.498 5.982,0.665 9,0.5 z"
       id="path68" />
  </g>
  <g
     id="g69"
     transform="matrix(1.1959456,0,0,1.1959456,-48.888451,-56.230301)">
    <path
       style="opacity:1"
       fill="#f6efde"
       d="m 166.5,281.5 c 15.818,-1.355 22.318,5.645 19.5,21 -5.801,8.373 -13.301,10.207 -22.5,5.5 -8.784,-10.003 -7.784,-18.837 3,-26.5 z"
       id="path69" />
  </g>
  <g
     id="g70"
     transform="matrix(1.1959456,0,0,1.1959456,-48.888451,-56.230301)">
    <path
       style="opacity:1"
       fill="#4eb4be"
       d="m 129.5,281.5 c 6.582,-0.493 12.915,0.507 19,3 0.333,0.5 0.667,1 1,1.5 -1.513,1.879 -2.179,4.046 -2,6.5 -7.808,-2.31 -15.808,-3.644 -24,-4 -4.417,0.363 -8.751,0.863 -13,1.5 5.696,-4.52 12.03,-7.353 19,-8.5 z"
       id="path70" />
  </g>
  <g
     id="g71"
     transform="matrix(1.1959456,0,0,1.1959456,-48.888451,-56.230301)">
    <path
       style="opacity:1"
       fill="#f7f0df"
       d="m 355.5,284.5 c 3.655,-0.028 6.322,1.639 8,5 -6.027,6.694 -12.36,13.027 -19,19 6.319,6.819 12.819,13.486 19.5,20 2.833,-2.833 5.667,-5.667 8.5,-8.5 -5.699,-5.365 -11.033,-11.031 -16,-17 3.5,-3.5 7,-7 10.5,-10.5 1.715,2.259 3.548,4.426 5.5,6.5 -1.829,1.113 -2.663,2.613 -2.5,4.5 2.63,3.632 5.63,6.965 9,10 3.882,-3.546 7.382,-7.379 10.5,-11.5 -3.208,-4.24 -6.542,-8.407 -10,-12.5 1.258,-3 3.258,-4 6,-3 3.985,4.485 8.151,8.818 12.5,13 0.755,2.803 0.422,5.47 -1,8 -20.194,20.194 -40.36,40.36 -60.5,60.5 -2.471,0.706 -4.805,0.373 -7,-1 -6.817,-7.984 -14.15,-15.484 -22,-22.5 -7.819,8.319 -15.819,16.486 -24,24.5 -4.041,0.827 -8.041,0.66 -12,-0.5 17.333,-17.167 34.833,-34.167 52.5,-51 8.821,7.488 16.988,15.654 24.5,24.5 1,0.667 2,0.667 3,0 1.626,-2.628 3.626,-4.961 6,-7 -8.857,-8.409 -17.19,-17.242 -25,-26.5 7.688,-8.021 15.355,-16.021 23,-24 z"
       id="path71" />
  </g>
  <g
     id="g72"
     transform="matrix(1.1959456,0,0,1.1959456,-48.888451,-56.230301)">
    <path
       style="opacity:1"
       fill="#f5efde"
       d="m 319.5,288.5 c 9.372,-0.086 12.039,4.081 8,12.5 -8.171,3.806 -12.005,1.306 -11.5,-7.5 0.997,-1.823 2.164,-3.49 3.5,-5 z"
       id="path72" />
  </g>
  <g
     id="g73"
     transform="matrix(1.1959456,0,0,1.1959456,-48.888451,-56.230301)">
    <path
       style="opacity:1"
       fill="#0b0a0e"
       d="m 169.5,290.5 c 7.839,-0.297 10.172,3.036 7,10 -2.872,1.283 -5.705,1.283 -8.5,0 -2.271,-3.803 -1.771,-7.137 1.5,-10 z"
       id="path73" />
  </g>
  <g
     id="g74"
     transform="matrix(1.1959456,0,0,1.1959456,-48.888451,-56.230301)">
    <path
       style="opacity:1"
       fill="#f5efdd"
       d="m 152.5,380.5 c -3.756,-1.568 -6.923,-0.568 -9.5,3 -0.399,-0.228 -0.565,-0.562 -0.5,-1 7.805,-9.28 12.639,-19.947 14.5,-32 3.187,-20.473 -4.646,-34.639 -23.5,-42.5 -17.774,-4.36 -30.941,1.474 -39.5,17.5 -0.9533,2.932 -1.4533,5.932 -1.5,9 -1.5098,-1.228 -3.0098,-1.228 -4.5,0 -0.3333,3.333 -0.6667,6.667 -1,10 -0.3826,0.556 -0.8826,0.889 -1.5,1 -3.429,-12.091 -1.2623,-23.091 6.5,-33 10.86,-12.065 24.36,-16.565 40.5,-13.5 18.676,4.678 29.843,16.511 33.5,35.5 2.425,17.541 -2.075,32.874 -13.5,46 z"
       id="path74" />
  </g>
  <g
     id="g75"
     transform="matrix(1.1959456,0,0,1.1959456,-48.888451,-56.230301)">
    <path
       style="opacity:1"
       fill="#4fb7c2"
       d="m 176.5,241.5 c 1.493,-0.812 2.16,-2.145 2,-4 -1.239,-9.619 -1.239,-18.952 0,-28 2.058,-3.469 4.725,-5.469 8,-6 -9.199,20.23 -6.032,38.23 9.5,54 16.029,15.606 32.195,31.106 48.5,46.5 6.971,3.577 13.638,3.077 20,-1.5 1.5,-0.047 2.5,0.619 3,2 -3.144,4.978 -7.144,9.145 -12,12.5 -4.033,1.04 -7.699,0.374 -11,-2 -19.553,-18.888 -39.053,-37.722 -58.5,-56.5 -2.333,-3 -4.667,-6 -7,-9 -1.341,-2.522 -2.174,-5.189 -2.5,-8 z"
       id="path75" />
  </g>
  <g
     id="g76"
     transform="matrix(1.1959456,0,0,1.1959456,-48.888451,-56.230301)">
    <path
       style="opacity:1"
       fill="#f4eedd"
       d="m 301.5,305.5 c 7.157,-0.345 10.324,2.988 9.5,10 -3.913,6.117 -8.246,6.451 -13,1 -1.337,-4.628 -0.17,-8.295 3.5,-11 z"
       id="path76" />
  </g>
  <g
     id="g77"
     transform="matrix(1.1959456,0,0,1.1959456,-48.888451,-56.230301)">
    <path
       style="opacity:1"
       fill="#a85b35"
       d="m 221.5,306.5 c 4.931,4.264 9.598,8.931 14,14 -3.973,3.306 -7.64,6.973 -11,11 -0.595,-8.408 -1.595,-16.742 -3,-25 z"
       id="path77" />
  </g>
  <g
     id="g78"
     transform="matrix(1.1959456,0,0,1.1959456,-48.888451,-56.230301)">
    <path
       style="opacity:1"
       fill="#5ebdc4"
       d="m 190.5,313.5 c 4.224,-0.448 5.891,1.219 5,5 -5.366,1.968 -7.032,0.301 -5,-5 z"
       id="path78" />
  </g>
  <g
     id="g79"
     transform="matrix(1.1959456,0,0,1.1959456,-48.888451,-56.230301)">
    <path
       style="opacity:1"
       fill="#f0ebda"
       d="m 126.5,317.5 c 7.102,-0.427 9.102,2.407 6,8.5 -7.312,0.871 -9.312,-1.962 -6,-8.5 z"
       id="path79" />
  </g>
  <g
     id="g80"
     transform="matrix(1.1959456,0,0,1.1959456,-48.888451,-56.230301)">
    <path
       style="opacity:1"
       fill="#dde2da"
       d="m 176.5,321.5 c 1.225,0.652 1.892,1.819 2,3.5 -0.014,1.385 -0.348,2.551 -1,3.5 -0.783,-1.843 -1.45,-3.843 -2,-6 0.124,-0.607 0.457,-0.94 1,-1 z"
       id="path80" />
  </g>
  <g
     id="g81"
     transform="matrix(1.1959456,0,0,1.1959456,-48.888451,-56.230301)">
    <path
       style="opacity:1"
       fill="#54bac0"
       d="m 282.5,321.5 c 7.174,-0.981 10.674,2.019 10.5,9 -2.412,6.083 -6.412,7.416 -12,4 -2.361,-4.771 -1.861,-9.104 1.5,-13 z"
       id="path81" />
  </g>
  <g
     id="g82"
     transform="matrix(1.1959456,0,0,1.1959456,-48.888451,-56.230301)">
    <path
       style="opacity:1"
       fill="#4cb8c1"
       d="m 177.5,328.5 c 0.652,-0.949 0.986,-2.115 1,-3.5 -0.108,-1.681 -0.775,-2.848 -2,-3.5 3.947,-2.965 6.781,-1.965 8.5,3 3.538,13.948 1.538,26.948 -6,39 -2.309,3.219 -5.142,4.885 -8.5,5 6.207,-12.568 8.54,-25.902 7,-40 z"
       id="path82" />
  </g>
  <g
     id="g83"
     transform="matrix(1.1959456,0,0,1.1959456,-48.888451,-56.230301)">
    <path
       style="opacity:1"
       fill="#4db7c1"
       d="m 193.5,281.5 c 1.221,-0.965 2.554,-0.798 4,0.5 15.31,15.935 20.144,34.768 14.5,56.5 -3.356,12.22 -9.856,22.387 -19.5,30.5 -1.293,0.49 -2.627,0.657 -4,0.5 -0.157,-1.373 0.01,-2.707 0.5,-4 5.462,-5.252 9.128,-11.585 11,-19 6.326,-18.819 5.993,-37.486 -1,-56 -1.357,-3.398 -3.19,-6.398 -5.5,-9 z"
       id="path83" />
  </g>
  <g
     id="g84"
     transform="matrix(1.1959456,0,0,1.1959456,-48.888451,-56.230301)">
    <path
       style="opacity:1"
       fill="#f2ead3"
       d="m 393.5,324.5 c -0.392,1.679 -0.892,3.346 -1.5,5 -2.372,2.203 -4.539,4.537 -6.5,7 -1.585,-0.502 -2.085,-1.502 -1.5,-3 3.036,-3.204 6.203,-6.204 9.5,-9 z"
       id="path84" />
  </g>
  <g
     id="g85"
     transform="matrix(1.1959456,0,0,1.1959456,-48.888451,-56.230301)">
    <path
       style="opacity:1"
       fill="#0b0b0f"
       d="m 323.5,328.5 c 6.312,6.979 12.979,13.646 20,20 -2.984,3.485 -6.151,6.818 -9.5,10 -6.736,-6.568 -13.236,-13.235 -19.5,-20 3.022,-3.353 6.022,-6.687 9,-10 z"
       id="path85" />
  </g>
  <g
     id="g86"
     transform="matrix(1.1959456,0,0,1.1959456,-48.888451,-56.230301)">
    <path
       style="opacity:1"
       fill="#f6f0dd"
       d="m 135.5,355.5 c -1.271,-1.609 -2.271,-3.442 -3,-5.5 -1.293,-0.49 -2.627,-0.657 -4,-0.5 -1.224,-5.953 -4.891,-8.453 -11,-7.5 -4.05,2.67 -3.883,5.17 0.5,7.5 -0.027,5.434 -2.527,6.934 -7.5,4.5 -5.76,-6.926 -5.094,-13.259 2,-19 10.847,-4.492 18.68,-1.325 23.5,9.5 0.81,3.858 0.643,7.524 -0.5,11 z"
       id="path86" />
  </g>
  <g
     id="g87"
     transform="matrix(1.1959456,0,0,1.1959456,-48.888451,-56.230301)">
    <path
       style="opacity:1"
       fill="#f8f1dd"
       d="m 279.5,346.5 c -3.018,0.165 -6.018,-0.002 -9,-0.5 -4.333,-4.333 -8.667,-8.667 -13,-13 -1.293,-0.49 -2.627,-0.657 -4,-0.5 1.811,-3.347 4.478,-5.18 8,-5.5 5.864,6.199 12.031,12.032 18.5,17.5 0.692,0.937 0.525,1.603 -0.5,2 z"
       id="path87" />
  </g>
  <g
     id="g88"
     transform="matrix(1.1959456,0,0,1.1959456,-48.888451,-56.230301)">
    <path
       style="opacity:1"
       fill="#a5603a"
       d="m 385.5,336.5 c 1.961,-2.463 4.128,-4.797 6.5,-7 0.608,-1.654 1.108,-3.321 1.5,-5 1.765,-3.541 2.765,-3.541 3,0 -0.689,6.256 -3.189,11.59 -7.5,16 -1.402,-1.145 -2.569,-2.478 -3.5,-4 z"
       id="path88" />
  </g>
  <g
     id="g89"
     transform="matrix(1.1959456,0,0,1.1959456,-48.888451,-56.230301)">
    <path
       style="opacity:1"
       fill="#a55d34"
       d="m 415.5,226.5 c 0,33.667 0,67.333 0,101 -0.898,14.71 -5.898,27.71 -15,39 -8.837,5.311 -17.837,10.478 -27,15.5 -3.811,1.739 -7.811,2.572 -12,2.5 -0.214,-1.644 0.12,-3.144 1,-4.5 -1.293,-0.49 -2.627,-0.657 -4,-0.5 5.951,-1.47 11.618,-3.804 17,-7 3.02,0.972 6.02,0.472 9,-1.5 15.082,-9.647 23.415,-23.48 25,-41.5 0,-2 0,-4 0,-6 0.832,-32.164 1.332,-64.497 1.5,-97 1.49,-1.228 2.99,-1.228 4.5,0 z"
       id="path89" />
  </g>
  <g
     id="g90"
     transform="matrix(1.1959456,0,0,1.1959456,-48.888451,-56.230301)">
    <path
       style="opacity:1"
       fill="#a05834"
       d="m 250.5,332.5 c 1,0 2,0 3,0 1.373,-0.157 2.707,0.01 4,0.5 4.333,4.333 8.667,8.667 13,13 2.982,0.498 5.982,0.665 9,0.5 -2.014,2.847 -4.514,5.18 -7.5,7 -5.122,-4.12 -9.956,-8.62 -14.5,-13.5 -2.717,-2.076 -5.717,-2.743 -9,-2 -2.667,2 -5.333,4 -8,6 -8.054,8.544 -16.387,16.877 -25,25 -2.867,0.801 -5.534,0.634 -8,-0.5 2.432,-1.25 4.766,-2.75 7,-4.5 9.667,-11 20,-21.333 31,-31 1.634,-0.494 3.301,-0.66 5,-0.5 z"
       id="path90" />
  </g>
  <g
     id="g91"
     transform="matrix(1.1959456,0,0,1.1959456,-48.888451,-56.230301)">
    <path
       style="opacity:1"
       fill="#f9efde"
       d="m 250.5,332.5 c -1.699,-0.16 -3.366,0.006 -5,0.5 -11,9.667 -21.333,20 -31,31 -2.234,1.75 -4.568,3.25 -7,4.5 4.571,-5.463 8.405,-11.463 11.5,-18 7.833,-7.833 15.667,-15.667 23.5,-23.5 1.333,-0.667 2.667,-0.667 4,0 1.165,1.992 2.498,3.825 4,5.5 z"
       id="path91" />
  </g>
  <g
     id="g92"
     transform="matrix(1.1959456,0,0,1.1959456,-48.888451,-56.230301)">
    <path
       style="opacity:1"
       fill="#f3ead8"
       d="m 381.5,352.5 c -2.619,0.268 -5.119,-0.065 -7.5,-1 -4.429,4.271 -9.263,7.938 -14.5,11 -0.607,-0.124 -0.94,-0.457 -1,-1 5.13,-5.631 10.464,-11.131 16,-16.5 3.142,0.088 5.642,1.588 7.5,4.5 0.74,1.249 0.573,2.249 -0.5,3 z"
       id="path92" />
  </g>
  <g
     id="g93"
     transform="matrix(1.1959456,0,0,1.1959456,-48.888451,-56.230301)">
    <path
       style="opacity:1"
       fill="#f2ead7"
       d="m 406.5,329.5 c -0.131,0.739 0.036,1.406 0.5,2 0.708,-0.881 1.542,-1.547 2.5,-2 -1.585,18.02 -9.918,31.853 -25,41.5 -2.98,1.972 -5.98,2.472 -9,1.5 17.021,-9.662 27.354,-23.996 31,-43 z"
       id="path93" />
  </g>
  <g
     id="g94"
     transform="matrix(1.1959456,0,0,1.1959456,-48.888451,-56.230301)">
    <path
       style="opacity:1"
       fill="#f1ead7"
       d="m 258.5,363.5 c -1.431,-1.937 -3.098,-3.77 -5,-5.5 -0.937,-0.692 -1.603,-0.525 -2,0.5 -2.073,2.08 -4.407,3.746 -7,5 -2.667,0 -5.333,0 -8,0 4.006,-6.006 9.006,-11.006 15,-15 4.708,3.707 8.708,8.04 12,13 -1.522,1.062 -3.188,1.729 -5,2 z"
       id="path94" />
  </g>
  <g
     id="g95"
     transform="matrix(1.1959456,0,0,1.1959456,-48.888451,-56.230301)">
    <path
       style="opacity:1"
       fill="#4eb7c2"
       d="m 92.5,334.5 c -0.7429,13.023 4.5904,22.523 16,28.5 12.07,3.057 18.737,-1.443 20,-13.5 1.373,-0.157 2.707,0.01 4,0.5 0.729,2.058 1.729,3.891 3,5.5 -3.197,12.95 -11.531,18.45 -25,16.5 -14.0828,-3.283 -22.4161,-12.117 -25,-26.5 0.6174,-0.111 1.1174,-0.444 1.5,-1 0.3333,-3.333 0.6667,-6.667 1,-10 1.4902,-1.228 2.9902,-1.228 4.5,0 z"
       id="path95" />
  </g>
  <g
     id="g96"
     transform="matrix(1.1959456,0,0,1.1959456,-48.888451,-56.230301)">
    <path
       style="opacity:1"
       fill="#9c5932"
       d="m 381.5,352.5 c -7.271,9.749 -16.937,14.749 -29,15 1.688,-2.354 3.688,-4.354 6,-6 0.06,0.543 0.393,0.876 1,1 5.237,-3.062 10.071,-6.729 14.5,-11 2.381,0.935 4.881,1.268 7.5,1 z"
       id="path96" />
  </g>
  <g
     id="g97"
     transform="matrix(1.1959456,0,0,1.1959456,-48.888451,-56.230301)">
    <path
       style="opacity:1"
       fill="#925334"
       d="m 236.5,363.5 c 2.667,0 5.333,0 8,0 -3.218,5.605 -7.885,7.272 -14,5 1.411,-2.414 3.411,-4.081 6,-5 z"
       id="path97" />
  </g>
  <g
     id="g98"
     transform="matrix(1.1959456,0,0,1.1959456,-48.888451,-56.230301)">
    <path
       style="opacity:1"
       fill="#835642"
       d="m 251.5,358.5 c 0.397,-1.025 1.063,-1.192 2,-0.5 1.902,1.73 3.569,3.563 5,5.5 -1.062,2.257 -2.728,3.423 -5,3.5 3.784,-3.509 3.118,-6.343 -2,-8.5 z"
       id="path98" />
  </g>
  <g
     id="g99"
     transform="matrix(1.1959456,0,0,1.1959456,-48.888451,-56.230301)">
    <path
       style="opacity:1"
       fill="#a15e3a"
       d="m 304.5,361.5 c 5.001,-0.829 7.168,1.171 6.5,6 -2.401,1.102 -4.901,1.269 -7.5,0.5 -1.356,-2.414 -1.022,-4.581 1,-6.5 z"
       id="path99" />
  </g>
  <g
     id="g100"
     transform="matrix(1.1959456,0,0,1.1959456,-48.888451,-56.230301)">
    <path
       style="opacity:1"
       fill="#ac5e2f"
       d="m 357.5,379.5 c 0.333,0 0.667,0 1,0 1.373,-0.157 2.707,0.01 4,0.5 -0.88,1.356 -1.214,2.856 -1,4.5 -56.929,0.996 -113.929,1.329 -171,1 -0.898,-0.658 -1.898,-1.324 -3,-2 0.167,-0.333 0.333,-0.667 0.5,-1 10.116,1.08 20.282,0.913 30.5,-0.5 45.333,-0.333 90.667,-0.667 136,-1 1.237,-0.232 2.237,-0.732 3,-1.5 z"
       id="path100" />
  </g>
  <g
     id="g101"
     transform="matrix(1.1959456,0,0,1.1959456,-48.888451,-56.230301)">
    <path
       style="opacity:1"
       fill="#51abb7"
       d="m 400.5,366.5 c -9.236,12.633 -21.569,20.8 -37,24.5 -62.306,1.307 -124.64,1.974 -187,2 -7.906,4.756 -15.906,9.256 -24,13.5 1.206,-2.798 3.206,-4.965 6,-6.5 5.891,-3.776 11.891,-7.276 18,-10.5 -0.111,0.617 -0.444,1.117 -1,1.5 25.333,0.667 50.667,0.667 76,0 2.971,-0.794 5.971,-1.461 9,-2 -13.934,-1.141 -27.934,-1.641 -42,-1.5 -13.71,0.017 -27.376,0.351 -41,1 0.453,-0.958 1.119,-1.792 2,-2.5 3.652,-0.499 7.318,-0.665 11,-0.5 57.071,0.329 114.071,-0.004 171,-1 4.189,0.072 8.189,-0.761 12,-2.5 9.163,-5.022 18.163,-10.189 27,-15.5 z"
       id="path101" />
  </g>
  <g
     id="g102"
     transform="matrix(1.1959456,0,0,1.1959456,-48.888451,-56.230301)">
    <path
       style="opacity:1"
       fill="#34b3cd"
       d="m 176.5,389.5 c 0,-0.667 0.333,-1 1,-1 13.624,-0.649 27.29,-0.983 41,-1 14.066,-0.141 28.066,0.359 42,1.5 -3.029,0.539 -6.029,1.206 -9,2 -25.333,0.667 -50.667,0.667 -76,0 0.556,-0.383 0.889,-0.883 1,-1.5 z"
       id="path102" />
  </g>
  <g
     id="g103"
     transform="matrix(1.1959456,0,0,1.1959456,-48.888451,-56.230301)">
    <path
       style="opacity:1"
       fill="#a15a34"
       d="m 152.5,380.5 c -4.917,8.099 -10.084,16.099 -15.5,24 -0.688,0.832 -0.521,1.498 0.5,2 12.865,-8.697 25.865,-17.197 39,-25.5 60.351,-0.186 120.684,-0.686 181,-1.5 -0.763,0.768 -1.763,1.268 -3,1.5 -45.333,0.333 -90.667,0.667 -136,1 -10.218,1.413 -20.384,1.58 -30.5,0.5 -0.167,0.333 -0.333,0.667 -0.5,1 1.102,0.676 2.102,1.342 3,2 -3.682,-0.165 -7.348,10e-4 -11,0.5 -0.881,0.708 -1.547,1.542 -2,2.5 -0.667,0 -1,0.333 -1,1 -6.109,3.224 -12.109,6.724 -18,10.5 -2.794,1.535 -4.794,3.702 -6,6.5 -9.44,5.895 -18.773,12.061 -28,18.5 -2.558,1.626 -5.225,2.626 -8,3 6.642,-12.119 13.142,-24.285 19.5,-36.5 1.699,-3.421 3.865,-6.421 6.5,-9 -0.065,0.438 0.101,0.772 0.5,1 2.577,-3.568 5.744,-4.568 9.5,-3 z"
       id="path103" />
  </g>
</svg>
